<svg xmlns="http://www.w3.org/2000/svg" viewBox="0 0 1600 900" preserveAspectRatio="xMidYMid slice">
  <defs>
    <linearGradient id="bg" x1="0" y1="0" x2="1" y2="1">
      <stop offset="0" stop-color="#0f0e11"/>
      <stop offset="0.5" stop-color="#4d1210"/>
      <stop offset="1" stop-color="#a82420"/>
    </linearGradient>
    <linearGradient id="glow" x1="0" y1="1" x2="1" y2="0">
      <stop offset="0" stop-color="#bf9c6f"/>
      <stop offset="1" stop-color="#a82420"/>
    </linearGradient>
  </defs>
  <rect width="1600" height="900" fill="url(#bg)"/>
  <g fill="none" stroke="#bf9c6f" stroke-opacity="0.3" stroke-width="2">
    <path d="M0 700 L280 620 L420 670 L760 540 L980 600 L1240 470 L1600 560"/>
    <path d="M0 470 L300 400 L560 470 L820 360 L1100 430 L1600 340"/>
    <path d="M180 900 L180 700 M340 900 L340 620 M820 900 L820 540 M1180 900 L1180 470"/>
    <circle cx="420" cy="670" r="6" fill="#bf9c6f" stroke="none"/>
    <circle cx="760" cy="540" r="6" fill="#bf9c6f" stroke="none"/>
    <circle cx="1240" cy="470" r="6" fill="#bf9c6f" stroke="none"/>
    <circle cx="300" cy="400" r="6" fill="#bf9c6f" stroke="none"/>
    <circle cx="1100" cy="430" r="6" fill="#bf9c6f" stroke="none"/>
  </g>
  <g opacity="0.9">
    <circle cx="1200" cy="180" r="160" fill="url(#glow)" opacity="0.35"/>
    <circle cx="1350" cy="220" r="90" fill="url(#glow)" opacity="0.28"/>
  </g>
  <text x="1600" y="860" text-anchor="end" font-family="Inter, system-ui, sans-serif" font-size="44" font-weight="800" fill="#fff8e1" opacity="0.82">JYC HERO (placeholder)</text>
</svg>